<svg width="64" height="64" viewBox="0 0 64 64" fill="none" xmlns="http://www.w3.org/2000/svg">
<path d="M54 20L52.3333 48.352C52.2435 49.8801 51.573 51.3162 50.4591 52.3661C49.3452 53.4161 47.8721 54.0006 46.3413 54H17.6587C16.1279 54.0006 14.6548 53.4161 13.5409 52.3661C12.427 51.3162 11.7565 49.8801 11.6667 48.352L10 20M26 31L32 37M32 37L38 43M32 37L38 31M32 37L26 43M9 20H55C56.656 20 58 18.656 58 17V13C58 11.344 56.656 10 55 10H9C7.344 10 6 11.344 6 13V17C6 18.656 7.344 20 9 20Z" stroke="#7C7C8A" stroke-width="3" stroke-linecap="round" stroke-linejoin="round"/>
</svg>
